<svg xmlns="http://www.w3.org/2000/svg" viewBox="0 0 512.001 512.001" style="enable-background:new 0 0 512.001 512.001" xml:space="preserve">
  <circle style="fill:#84dccf" cx="108.003" cy="128" r="40"/>
  <path style="fill:#027ea8" d="M84.001 144c0-22.092 17.909-40 40-40 6.915 0 13.321 1.914 18.996 5.004C136.219 96.551 123.177 88 108.001 88c-22.092 0-40 17.909-40 40 0 15.175 8.551 28.218 21.003 34.997-3.088-5.675-5.003-12.081-5.003-18.997z"/>
  <circle style="fill:#027ea8" cx="315.996" cy="47.998" r="40"/>
  <path style="fill:#84dccf" d="M292.001 64c0-22.092 17.909-40 40-40 6.915 0 13.321 1.914 18.996 5.004C344.219 16.551 331.177 8 316.001 8c-22.092 0-40 17.909-40 40 0 15.175 8.551 28.218 21.003 34.997-3.088-5.675-5.003-12.081-5.003-18.997z"/>
  <circle style="fill:#f15a24" cx="68.007" cy="415.996" r="40"/>
  <path style="fill:#fbb03b" d="M44.002 432c0-22.092 17.909-40 40-40 6.915 0 13.321 1.914 18.996 5.004C96.22 384.551 83.177 376 68.002 376c-22.092 0-40 17.909-40 40 0 15.175 8.551 28.218 21.003 34.997-3.088-5.675-5.003-12.082-5.003-18.997z"/>
  <circle style="fill:#84dccf" cx="323.997" cy="464.004" r="40"/>
  <path style="fill:#027ea8" d="M300.002 480c0-22.092 17.909-40 40-40 6.915 0 13.321 1.914 18.997 5.004C352.22 432.551 339.178 424 324.002 424c-22.092 0-40 17.909-40 40 0 15.175 8.551 28.218 21.003 34.997-3.089-5.676-5.003-12.082-5.003-18.997z"/>
  <circle style="fill:#84dccf" cx="436.005" cy="231.997" r="24.004"/>
  <path style="fill:#35dcc3" d="M436.001 232c0-8.861 4.857-16.514 12-20.671-3.543-2.061-7.606-3.329-12-3.329-13.255 0-24 10.745-24 24s10.745 24 24 24c4.394 0 8.457-1.267 12-3.329-7.143-4.157-12-11.811-12-20.671z"/>
  <circle style="fill:#f15a24" cx="459.999" cy="72.001" r="24.004"/>
  <path style="fill:#f14507" d="M460.001 72c0-8.861 4.857-16.514 12-20.671-3.543-2.061-7.606-3.329-12-3.329-13.255 0-24 10.745-24 24s10.745 24 24 24c4.394 0 8.457-1.267 12-3.329-7.143-4.157-12-11.81-12-20.671z"/>
  <circle style="fill:#fbb03b" cx="195.997" cy="464.004" r="24.004"/>
  <path style="fill:#fb9e0c" d="M196.001 463.999c0-8.861 4.857-16.514 12-20.671-3.543-2.061-7.606-3.329-12-3.329-13.255 0-24 10.745-24 24s10.745 24 24 24c4.394 0 8.458-1.267 12-3.329-7.143-4.156-12-11.809-12-20.671z"/>
  <circle style="fill:#fbb03b" cx="259.997" cy="256.001" r="72.001"/>
  <path style="fill:#f15a24" d="M228.001 256.001c0-32.817 21.977-60.451 52-69.126-6.356-1.836-13.052-2.874-20-2.874-39.764 0-72 32.235-72 72 0 39.764 32.235 72 72 72 6.947 0 13.644-1.037 20-2.874-30.023-8.675-52-36.311-52-69.126z"/>
  <path style="fill:#fff" d="M211.496 284.003a55.536 55.536 0 0 1-6.72-18.677l7.768-1.304 7.964-1.597.046.252a39.609 39.609 0 0 0 4.791 13.315l-13.849 8.011zM220.002 256.001h-16.001c0-30.878 25.468-56 55.642-56v16.001c-21.85-.002-39.641 17.942-39.641 39.999zM308.001 47.904h-16c0-13.526 10.301-23.903 23.827-23.903v16.001c-4.161-.002-7.827 3.74-7.827 7.902zM100.002 128.021H84.001c0-13.526 11.246-24.021 23.731-24.021v16.001c-4.161 0-7.73 3.858-7.73 8.02zM316.001 464.097h-16c0-13.526 10.625-24.098 24.152-24.098V456c-4.162 0-8.152 3.935-8.152 8.097zM60.002 416.235H44.001c0-13.526 10.667-24.235 24.193-24.235v16.001c-4.162-.001-8.192 4.072-8.192 8.234z"/>
  <path d="M316.001 96c20.436 0 37.919-12.842 44.831-30.875l67.88 13.576C431.802 93.139 444.655 104 460.001 104c17.645 0 32-14.356 32-32s-14.356-32-32-32c-14.348 0-26.521 9.493-30.568 22.528l-65.468-13.093c.014-.478.036-.953.036-1.434.001-26.468-21.533-48.001-48-48.001-26.468 0-48 21.533-48 48.001 0 20.365 12.755 37.798 30.691 44.758l-19.738 85.529A79.874 79.874 0 0 0 260.001 176c-21.361 0-40.778 8.432-55.14 22.122l-54.46-47.652a47.688 47.688 0 0 0 5.601-22.469c0-26.468-21.533-48.001-48.001-48.001s-48 21.534-48 48.001 21.533 48 48 48c12.586 0 24.049-4.876 32.618-12.828l53.809 47.083c-9.079 12.975-14.427 28.743-14.427 45.746 0 16.968 5.326 32.708 14.371 45.668l-93.659 79.25c-8.58-8.005-20.08-12.918-32.712-12.918-26.468 0-48.001 21.533-48.001 48s21.533 48.001 48.001 48.001 48-21.533 48-48.001a47.69 47.69 0 0 0-5.547-22.364l94.336-79.824c14.37 13.729 33.815 22.188 55.211 22.188 6.04 0 11.917-.695 17.577-1.97l28.486 85.459c-15.152 6.127-26.478 19.768-29.344 36.283h-49.797C223.284 442.103 210.802 432 196.001 432c-17.645 0-32 14.356-32 32s14.356 32 32 32c15.105 0 27.789-10.522 31.132-24.62h49.436C280.13 494.356 300.043 512 324 512c26.468 0 48-21.533 48-48.001s-21.532-48-48-48c-.743 0-1.482.023-2.216.056l-29.032-87.096c27.821-12.539 47.247-40.514 47.247-72.96 0-.481-.028-.955-.036-1.434l65.469-13.094C409.479 254.506 421.651 264 435.999 264c17.645 0 32-14.356 32-32s-14.356-32-32-32c-15.346 0-28.198 10.862-31.287 25.299l-66.635 13.328c-5.412-24.335-21.925-44.529-43.944-54.96l20.241-87.707c.542.017 1.082.04 1.627.04zm144-39.999c8.822 0 16.001 7.177 16.001 16s-7.177 16-16.001 16C451.178 88 444 80.823 444 72s7.179-15.999 16.001-15.999zM196.001 480c-8.822 0-16-7.177-16-16.001 0-8.822 7.177-16 16-16s16 7.177 16 16c.001 8.824-7.177 16.001-16 16.001zm160-16.001c0 17.645-14.356 32-32 32-17.646 0-32.001-14.354-32.001-32C292 446.355 306.356 432 324.001 432c17.645 0 32 14.355 32 31.999zm80-247.999c8.822 0 16.001 7.177 16.001 16s-7.177 16-16.001 16c-8.821 0-16-7.177-16-16 .001-8.823 7.178-16 16-16zm-328-56.001c-17.645 0-31.999-14.355-31.999-31.999 0-17.646 14.355-32 31.999-32s32 14.355 32 32-14.354 31.999-32 31.999zM68.002 448c-17.646 0-32-14.354-32-32 0-17.645 14.355-31.999 32-31.999s31.999 14.354 31.999 31.999c0 17.644-14.355 32-31.999 32zm255.999-191.999c0 35.29-28.711 64-64 64s-64-28.71-64-64 28.71-64 64-64 64 28.709 64 64zm-40-208c0-17.646 14.356-32 32-32 17.646 0 32.001 14.355 32.001 32S333.646 80 316.001 80c-17.644 0-32-14.355-32-31.999z"/>
</svg>